<svg  viewBox="0 0 12 12" fill="none" xmlns="http://www.w3.org/2000/svg">
<path d="M11.2215 0.783499C11.3641 0.932624 11.3641 1.16903 11.2215 1.31813L6.91924 5.66369L11.2215 10.0092C11.3702 10.1595 11.3702 10.4031 11.2215 10.5533C11.0727 10.7036 10.8315 10.7036 10.6828 10.5533L6.33301 6.15935L1.98323 10.5533C1.85101 10.6869 1.64578 10.7017 1.49732 10.5979L1.44456 10.5533C1.29582 10.4031 1.29582 10.1595 1.44456 10.0092L5.74678 5.66369L1.44456 1.31813C1.30196 1.16903 1.30196 0.932624 1.44456 0.783499C1.59072 0.63063 1.83189 0.626392 1.98323 0.774029L6.33234 5.16735L10.6828 0.774029C10.8341 0.626392 11.0753 0.63063 11.2215 0.783499Z" fill="black" stroke="black"/>
</svg>
