             <svg version="1.1" xmlns="http://www.w3.org/2000/svg" xmlns:xlink="http://www.w3.org/1999/xlink" x="0px" y="0px" width="1400px" height="1400px" viewBox="0 0 1400 1400" enable-background="new 0 0 1400 1400" xml:space="preserve" id="logo">
         
               <g id="Objects">
         
                 <g id="ornament">
                   <linearGradient id="ornament_2_" gradientUnits="userSpaceOnUse" x1="700" y1="227.8621" x2="700" y2="1172.1379">
                     <stop offset="0" style="stop-color:rgb(26 115 232);"></stop>
                     <stop offset="0.5" style="stop-color:   rgb(26 115 232);"></stop>
                     <stop offset="1" style="stop-color:rgb(26 115 232);"></stop>
                   </linearGradient>
                   <path id="ornament_1_" fill="url(#ornament_2_)" d="M1182.3,1063.2C1182.3,1063.2,1182.3,1063.2,1182.3,1063.2
                                     c-2.5-29.7-7.7-58.9-15.6-87.4c-5.6-20.2-12.5-40-20.7-59.4c-15.6-36.9-35.6-71.5-59.6-103.2c0.7-9.4,1-18.9,1-28.4
                                     c0-52.3-10.2-103-30.5-150.8c-19.5-46.1-47.4-87.6-83-123.1c-30.9-30.9-66.3-56.1-105.3-74.9c-7.7-18.1-16.6-35.8-26.5-53.1
                                     c-20.7-35.9-45.6-68.6-74.1-97.6c-16.4-16.7-34.1-32.3-53-46.5c-4.9-3.7-9.8-7.3-14.8-10.8c0,0-0.1,0-0.1,0.1c0,0-0.1,0-0.1-0.1
                                     c-5,3.5-9.9,7.1-14.8,10.8c-18.9,14.3-36.6,29.8-53,46.5c-28.6,29.1-53.4,61.7-74.1,97.6c-10,17.3-18.8,35-26.5,53.1
                                     c-39,18.9-74.4,44-105.3,74.9c-35.6,35.6-63.5,77-83,123.1c-20.2,47.8-30.5,98.5-30.5,150.8c0,9.5,0.3,19,1,28.4
                                     c-24,31.7-44,66.3-59.6,103.2c-8.2,19.5-15.1,39.3-20.7,59.6c-7.9,28.5-13.1,57.7-15.6,87.3c0,0,0,0,0,0
                                     c25.6,11.9,52.2,21.7,79.9,29.1c1.2,0.3,2.4,0.6,3.7,0.9c40.1,10.4,80.8,15.7,121.7,15.7c19.7,0,39.5-1.2,59.3-3.7
                                     c21,14.3,43.3,26.5,66.9,36.5c47.8,20.2,98.5,30.5,150.8,30.5c52.3,0,103-10.2,150.8-30.5c23.6-10,46-22.2,66.9-36.5
                                     c19.8,2.4,39.5,3.7,59.3,3.7c40.9,0,81.7-5.2,121.7-15.7c0,0,0,0,0,0c0,0,0,0.1,0,0.1c24.9-6.5,49.2-14.9,72.9-25.4
                                     c1.4-0.6,2.9-1.3,4.3-1.9c0.6-0.3,1.3-0.6,1.9-0.9C1179.3,1064.6,1180.8,1063.9,1182.3,1063.2
                                     C1182.3,1063.2,1182.3,1063.2,1182.3,1063.2z M913.7,998.5c-5.9,5.9-12,11.5-18.4,16.9c-40.9-8.6-80.5-23.7-117.7-45.2
                                     c-3.3-1.9-6.5-3.9-9.8-5.8c14.7-14.9,28.4-30.8,41.1-47.6c37-49,64.1-103.9,80.4-163.3c33.6,18.2,64.8,41.4,92.6,69.2
                                     c5.3,5.3,10.4,10.7,15.4,16.3C986.6,899,957.8,954.4,913.7,998.5z M486.3,998.5c-44.1-44.1-72.9-99.4-83.7-159.6
                                     c5-5.5,10.1-11,15.4-16.3c27.8-27.8,59-51,92.6-69.2c16.4,59.4,43.4,114.3,80.4,163.3c12.7,16.8,26.5,32.7,41.1,47.6
                                     c-3.2,2-6.5,3.9-9.8,5.8c-37.2,21.5-76.9,36.6-117.7,45.2C498.3,1010,492.2,1004.4,486.3,998.5z M700,482.5
                                     c35.3,0,69.6,6,101.9,17.5c14.6,44,21.3,89.9,19.9,136.2c-39.5-10.3-80.2-15.4-121.8-15.4c-41.5,0-82.3,5.2-121.8,15.4
                                     c-1.4-46.2,5.3-92.2,19.9-136.2C630.4,488.5,664.7,482.5,700,482.5z M591.8,728c-0.6-2.3-1.2-4.6-1.8-6.9
                                     c35.3-10.1,72.2-15.3,110-15.3c37.7,0,74.7,5.2,110,15.3c-0.6,2.3-1.2,4.6-1.8,6.9c-19.1,71.1-56.5,134.1-108.2,183.9
                                     C648.3,862.1,610.9,799.1,591.8,728z M913.7,571c41.9,41.9,69.9,93.9,81.9,150.4c-28-21.7-58.3-40.1-90.5-55.2
                                     c2.9-33.6,2.3-67.5-1.9-101.3c-0.2-1.5-0.4-3-0.6-4.4C906.5,563.9,910.1,567.4,913.7,571z M700,337.6
                                     C700,337.6,700,337.6,700,337.6C700,337.6,700,337.6,700,337.6c19.7,19.1,37.5,40.2,53.1,63.3c-17.5-2.4-35.2-3.6-53.1-3.6
                                     c-17.9,0-35.6,1.2-53.1,3.6C662.5,377.9,680.3,356.7,700,337.6z M486.3,571c3.6-3.6,7.3-7.1,11-10.5c-0.2,1.5-0.4,2.9-0.6,4.4
                                     c-4.2,33.8-4.8,67.7-1.9,101.3c-32.2,15.1-62.4,33.5-90.5,55.2C416.3,664.9,444.4,612.9,486.3,571z M312.8,1008.1
                                     C312.8,1008.1,312.8,1008.1,312.8,1008.1c6.7-26.9,16.1-52.9,28.2-77.7c0.7,1.7,1.4,3.4,2.1,5.1c13.3,31.4,30.4,60.5,51.2,87.2
                                     c-25-1.8-49.9-6.1-74.6-12.7C317.4,1009.4,315.1,1008.8,312.8,1008.1z M606.9,1072.5c19.8-8.2,39.1-17.7,58-28.6
                                     c12.1-7,23.8-14.4,35.1-22.3c11.3,7.9,23,15.4,35.1,22.3c18.8,10.9,38.2,20.4,58,28.6c-29.7,9.6-61,14.5-93.1,14.5
                                     C667.9,1087,636.6,1082,606.9,1072.5z M1080.3,1010.1c-24.7,6.6-49.7,10.8-74.6,12.7c20.8-26.6,38-55.8,51.2-87.2
                                     c0.7-1.7,1.4-3.4,2.1-5.1c12.1,24.8,21.5,50.8,28.2,77.7C1084.9,1008.8,1082.6,1009.4,1080.3,1010.1z"></path>
         
         
         
         
         
         
         
         
         
                 </g>
               </g>
             </svg>
